<?xml version="1.0" encoding="UTF-8" standalone="no"?>
<svg
   xmlns:dc="http://purl.org/dc/elements/1.1/"
   xmlns:cc="http://creativecommons.org/ns#"
   xmlns:rdf="http://www.w3.org/1999/02/22-rdf-syntax-ns#"
   xmlns:svg="http://www.w3.org/2000/svg"
   xmlns="http://www.w3.org/2000/svg"
   xmlns:sodipodi="http://sodipodi.sourceforge.net/DTD/sodipodi-0.dtd"
   xmlns:inkscape="http://www.inkscape.org/namespaces/inkscape"
   enable-background="new 0 0 128 128"
   height="128px"
   id="Layer_1"
   version="1.1"
   viewBox="0 0 128 128"
   width="128px"
   xml:space="preserve"
   sodipodi:docname="iconfinder_circle-check_430087.svg"
   inkscape:version="0.92.5 (2060ec1f9f, 2020-04-08)"><metadata
     id="metadata13"><rdf:RDF><cc:Work
         rdf:about=""><dc:format>image/svg+xml</dc:format><dc:type
           rdf:resource="http://purl.org/dc/dcmitype/StillImage" /></cc:Work></rdf:RDF></metadata><defs
     id="defs11" /><sodipodi:namedview
     pagecolor="#ffffff"
     bordercolor="#666666"
     borderopacity="1"
     objecttolerance="10"
     gridtolerance="10"
     guidetolerance="10"
     inkscape:pageopacity="0"
     inkscape:pageshadow="2"
     inkscape:window-width="1880"
     inkscape:window-height="1055"
     id="namedview9"
     showgrid="false"
     inkscape:zoom="1.84375"
     inkscape:cx="64"
     inkscape:cy="64"
     inkscape:window-x="40"
     inkscape:window-y="0"
     inkscape:window-maximized="1"
     inkscape:current-layer="Layer_1" /><g
     id="g6"
     style="fill:#ffffff;fill-opacity:1"><g
       id="g4"
       style="fill:#ffffff;fill-opacity:1"><path
         d="M 85.263,46.49 54.485,77.267 42.804,65.584 c -0.781,-0.782 -2.047,-0.782 -2.828,-0.002 -0.781,0.782 -0.781,2.048 0,2.829 l 14.51,14.513 33.605,-33.607 c 0.781,-0.779 0.781,-2.046 0,-2.827 -0.781,-0.782 -2.047,-0.782 -2.828,0 z M 64.032,13.871 c -27.642,0 -50.129,22.488 -50.129,50.126 0.002,27.642 22.49,50.131 50.131,50.131 h 0.004 c 27.638,0 50.123,-22.489 50.123,-50.131 0,-27.639 -22.487,-50.126 -50.129,-50.126 z m 0.006,96.257 h -0.004 c -25.435,0 -46.129,-20.694 -46.131,-46.131 0,-25.434 20.693,-46.126 46.129,-46.126 25.436,0 46.129,20.693 46.129,46.126 0,25.437 -20.69,46.131 -46.123,46.131 z"
         id="path2"
         inkscape:connector-curvature="0"
         style="fill:#ffffff;fill-opacity:1" /></g></g></svg>