<?xml version="1.0" encoding="UTF-8" standalone="no"?>
<svg
   xmlns:dc="http://purl.org/dc/elements/1.1/"
   xmlns:cc="http://creativecommons.org/ns#"
   xmlns:rdf="http://www.w3.org/1999/02/22-rdf-syntax-ns#"
   xmlns:svg="http://www.w3.org/2000/svg"
   xmlns="http://www.w3.org/2000/svg"
   xmlns:sodipodi="http://sodipodi.sourceforge.net/DTD/sodipodi-0.dtd"
   xmlns:inkscape="http://www.inkscape.org/namespaces/inkscape"
   style="enable-background:new 0 0 512 512;"
   version="1.1"
   viewBox="0 0 512 512"
   xml:space="preserve"
   id="svg14"
   sodipodi:docname="iconfinder_UI_Basic_outline-76_4733186.svg"
   inkscape:version="0.92.5 (2060ec1f9f, 2020-04-08)"><metadata
     id="metadata20"><rdf:RDF><cc:Work
         rdf:about=""><dc:format>image/svg+xml</dc:format><dc:type
           rdf:resource="http://purl.org/dc/dcmitype/StillImage" /></cc:Work></rdf:RDF></metadata><defs
     id="defs18" /><sodipodi:namedview
     pagecolor="#ffffff"
     bordercolor="#666666"
     borderopacity="1"
     objecttolerance="10"
     gridtolerance="10"
     guidetolerance="10"
     inkscape:pageopacity="0"
     inkscape:pageshadow="2"
     inkscape:window-width="1880"
     inkscape:window-height="1055"
     id="namedview16"
     showgrid="false"
     inkscape:zoom="0.4609375"
     inkscape:cx="256"
     inkscape:cy="256"
     inkscape:window-x="40"
     inkscape:window-y="0"
     inkscape:window-maximized="1"
     inkscape:current-layer="svg14" /><style
     type="text/css"
     id="style2">
	.st0{fill:#333333;}
</style><g
     id="Layer_1" /><g
     id="Layer_2"
     style="fill:#000000;fill-opacity:0.49803922"><g
       id="g11"
       style="fill:#000000;fill-opacity:0.49803922"><path
         class="st0"
         d="M 256,27.5 C 194.97,27.5 137.58,51.27 94.43,94.43 51.27,137.58 27.5,194.97 27.5,256 c 0,61.03 23.77,118.42 66.93,161.57 43.15,43.16 100.54,66.93 161.57,66.93 61.03,0 118.42,-23.77 161.57,-66.93 C 460.73,374.42 484.5,317.03 484.5,256 484.5,194.97 460.73,137.58 417.57,94.43 374.42,51.27 317.03,27.5 256,27.5 Z m 0,425 C 147.65,452.5 59.5,364.35 59.5,256 59.5,147.65 147.65,59.5 256,59.5 c 108.35,0 196.5,88.15 196.5,196.5 0,108.35 -88.15,196.5 -196.5,196.5 z"
         id="path5"
         inkscape:connector-curvature="0"
         style="fill:#000000;fill-opacity:0.49803922" /><path
         class="st0"
         d="m 323.39,133.21 c -17.47,-17.47 -40.59,-27.42 -65.1,-27.99 -25.93,-0.61 -50.42,9.02 -68.95,27.12 -18.54,18.11 -28.75,42.35 -28.75,68.25 0,8.84 7.16,16 16,16 8.84,0 16,-7.16 16,-16 0,-17.22 6.79,-33.33 19.11,-45.36 12.31,-12.03 28.59,-18.42 45.84,-18.02 33.32,0.78 61.06,28.53 61.85,61.85 0.55,23.6 -11.9,45.41 -32.5,56.93 -28.92,16.17 -46.89,46.4 -46.89,78.99 0,8.84 7.16,15.96 16,15.96 8.84,0 16,-7.21 16,-16.04 0,-20.92 11.69,-40.45 30.5,-50.97 30.98,-17.32 49.71,-50.13 48.87,-85.61 -0.57,-24.52 -10.51,-47.64 -27.98,-65.11 z"
         id="path7"
         inkscape:connector-curvature="0"
         style="fill:#000000;fill-opacity:0.49803922" /><path
         class="st0"
         d="m 271.69,387.68 c -0.11,-0.51 -0.24,-1.02 -0.39,-1.52 -0.15,-0.5 -0.33,-0.99 -0.53,-1.47 -0.2,-0.48 -0.42,-0.96 -0.66,-1.42 -0.25,-0.46 -0.52,-0.91 -0.81,-1.34 -0.29,-0.44 -0.6,-0.86 -0.93,-1.27 -0.33,-0.4 -0.69,-0.8 -1.06,-1.17 -0.37,-0.36 -0.76,-0.72 -1.16,-1.05 -0.41,-0.33 -0.83,-0.65 -1.27,-0.93 -0.43,-0.29 -0.88,-0.56 -1.34,-0.81 -0.46,-0.24 -0.94,-0.47 -1.42,-0.67 -0.48,-0.19 -0.98,-0.37 -1.47,-0.52 -0.5,-0.16 -1.01,-0.29 -1.52,-0.39 -0.52,-0.1 -1.04,-0.18 -1.56,-0.23 -1.04,-0.11 -2.1,-0.11 -3.14,0 -0.52,0.05 -1.04,0.13 -1.56,0.23 -0.51,0.1 -1.02,0.23 -1.52,0.39 -0.49,0.15 -0.99,0.33 -1.47,0.52 -0.48,0.2 -0.96,0.43 -1.42,0.67 -0.46,0.25 -0.91,0.52 -1.34,0.81 -0.44,0.28 -0.86,0.6 -1.27,0.93 -0.4,0.33 -0.79,0.69 -1.16,1.05 -0.37,0.37 -0.73,0.77 -1.06,1.17 -0.33,0.41 -0.64,0.83 -0.93,1.27 -0.29,0.43 -0.56,0.88 -0.81,1.34 -0.24,0.46 -0.47,0.94 -0.66,1.42 -0.2,0.48 -0.38,0.97 -0.53,1.47 -0.16,0.5 -0.28,1.01 -0.39,1.52 -0.1,0.51 -0.18,1.04 -0.23,1.55 -0.05,0.53 -0.08,1.05 -0.08,1.58 0,0.52 0.03,1.05 0.08,1.57 0.05,0.52 0.13,1.04 0.23,1.55 0.11,0.51 0.23,1.02 0.39,1.52 0.15,0.5 0.33,1 0.53,1.48 0.19,0.48 0.42,0.96 0.66,1.41 0.25,0.47 0.52,0.92 0.81,1.35 0.29,0.44 0.6,0.86 0.93,1.26 0.33,0.41 0.69,0.8 1.06,1.17 0.37,0.37 0.76,0.73 1.16,1.06 0.41,0.33 0.83,0.64 1.27,0.93 0.43,0.29 0.88,0.56 1.34,0.8 0.46,0.25 0.94,0.47 1.42,0.67 0.48,0.2 0.98,0.38 1.47,0.53 0.5,0.15 1.01,0.28 1.52,0.39 0.52,0.1 1.04,0.18 1.56,0.23 0.52,0.05 1.05,0.08 1.57,0.08 0.52,0 1.05,-0.03 1.57,-0.08 0.52,-0.05 1.04,-0.13 1.56,-0.23 0.51,-0.11 1.02,-0.24 1.52,-0.39 0.49,-0.15 0.99,-0.33 1.47,-0.53 0.48,-0.2 0.96,-0.42 1.41,-0.67 0.46,-0.24 0.92,-0.51 1.35,-0.8 0.44,-0.29 0.86,-0.6 1.26,-0.93 0.41,-0.33 0.8,-0.69 1.17,-1.06 0.37,-0.37 0.73,-0.76 1.06,-1.17 0.33,-0.4 0.64,-0.82 0.93,-1.26 0.29,-0.43 0.56,-0.88 0.81,-1.35 0.24,-0.45 0.46,-0.93 0.66,-1.41 0.2,-0.48 0.38,-0.98 0.53,-1.48 0.15,-0.5 0.28,-1.01 0.39,-1.52 0.1,-0.51 0.18,-1.03 0.23,-1.55 0.05,-0.52 0.08,-1.05 0.08,-1.57 0,-0.53 -0.03,-1.05 -0.08,-1.58 -0.05,-0.51 -0.13,-1.04 -0.23,-1.55 z"
         id="path9"
         inkscape:connector-curvature="0"
         style="fill:#000000;fill-opacity:0.49803922" /></g></g></svg>